<?xml version="1.0" standalone="no"?>
<!DOCTYPE svg PUBLIC "-//W3C//DTD SVG 20010904//EN"
 "http://www.w3.org/TR/2001/REC-SVG-20010904/DTD/svg10.dtd">
<svg version="1.0" xmlns="http://www.w3.org/2000/svg"
 width="152.000000pt" height="152.000000pt" viewBox="0 0 152.000000 152.000000"
 preserveAspectRatio="xMidYMid meet">
<metadata>
Created by potrace 1.11, written by Peter Selinger 2001-2013
</metadata>
<g transform="translate(0.000000,152.000000) scale(0.100000,-0.100000)"
fill="#000000" stroke="none">
<path d="M0 760 l0 -760 760 0 760 0 0 760 0 760 -760 0 -760 0 0 -760z m540
5 l0 -55 -230 0 -230 0 0 55 0 55 230 0 230 0 0 -55z m890 0 l0 -55 -225 0
-225 0 0 55 0 55 225 0 225 0 0 -55z m-990 -180 l0 -55 -180 0 -180 0 0 55 0
55 180 0 180 0 0 -55z m210 0 l0 -55 -55 0 -55 0 0 55 0 55 55 0 55 0 0 -55z
m330 0 l0 -55 -55 0 -55 0 0 55 0 55 55 0 55 0 0 -55z m450 0 l0 -55 -180 0
-180 0 0 55 0 55 180 0 180 0 0 -55z m-990 -180 l0 -55 -180 0 -180 0 0 55 0
55 180 0 180 0 0 -55z m210 0 l0 -55 -55 0 -55 0 0 55 0 55 55 0 55 0 0 -55z
m330 0 l0 -55 -55 0 -55 0 0 55 0 55 55 0 55 0 0 -55z m450 0 l0 -55 -180 0
-180 0 0 55 0 55 180 0 180 0 0 -55z"/>
</g>
</svg>
